HIERARCHY
ROOT Hips
{
	OFFSET 0.000000 0.000000 0.000000
	CHANNELS 6 Xposition Yposition Zposition Xrotation Yrotation Zrotation
	JOINT LeftUpLeg_virtual
	{
		OFFSET 0.000000 0.000000 0.000000
		CHANNELS 3 Xrotation Yrotation Zrotation
		JOINT LeftUpLeg
		{
			OFFSET 11.394100 -6.187798 -0.413800
			CHANNELS 3 Xrotation Yrotation Zrotation
			JOINT LeftLeg
			{
				OFFSET 0.430247 -32.302673 3.732800
				CHANNELS 3 Xrotation Yrotation Zrotation
				JOINT LeftFoot
				{
					OFFSET -0.430247 -48.264931 -6.423300
					CHANNELS 3 Xrotation Yrotation Zrotation
					JOINT LeftToeBase
					{
						OFFSET 4.230900 -16.068199 23.438400
						CHANNELS 3 Xrotation Yrotation Zrotation
						JOINT LeftToe_End
						{
							OFFSET 4.510700 0.695400 19.974600
							CHANNELS 3 Xrotation Yrotation Zrotation
							End Site
							{
								OFFSET 0 0 0
							}
						}
					}
				}
			}
		}
	}
	JOINT RightUpLeg_virtual
	{
		OFFSET 0.000000 0.000000 0.000000
		CHANNELS 3 Xrotation Yrotation Zrotation
		JOINT RightUpLeg
		{
			OFFSET -11.333700 -6.187798 -0.413800
			CHANNELS 3 Xrotation Yrotation Zrotation
			JOINT RightLeg
			{
				OFFSET -0.430392 -32.302628 3.733000
				CHANNELS 3 Xrotation Yrotation Zrotation
				JOINT RightFoot
				{
					OFFSET 0.430392 -48.264973 -6.423500
					CHANNELS 3 Xrotation Yrotation Zrotation
					JOINT RightToeBase
					{
						OFFSET -4.230900 -16.068199 23.438400
						CHANNELS 3 Xrotation Yrotation Zrotation
						JOINT RightToe_End
						{
							OFFSET -4.510700 0.695400 19.974600
							CHANNELS 3 Xrotation Yrotation Zrotation
							End Site
							{
								OFFSET 0 0 0
							}
						}
					}
				}
			}
		}
	}
	JOINT Spine_virtual
	{
		OFFSET 0.000000 0.000000 0.000000
		CHANNELS 3 Xrotation Yrotation Zrotation
		JOINT Spine
		{
			OFFSET -0.002400 12.777504 0.315300
			CHANNELS 3 Xrotation Yrotation Zrotation
			JOINT Spine1
			{
				OFFSET -0.002067 5.816869 0.032633
				CHANNELS 3 Xrotation Yrotation Zrotation
				JOINT Spine1_split
				{
					OFFSET -0.002067 5.816869 0.032633
					CHANNELS 3 Xrotation Yrotation Zrotation
					JOINT Spine2
					{
						OFFSET -0.002067 5.816869 0.032633
						CHANNELS 3 Xrotation Yrotation Zrotation
						JOINT Neck_virtual
						{
							OFFSET 0.000000 0.000000 0.000000
							CHANNELS 3 Xrotation Yrotation Zrotation
							JOINT Neck
							{
								OFFSET -0.003700 21.199493 -0.826900
								CHANNELS 3 Xrotation Yrotation Zrotation
								JOINT Head
								{
									OFFSET 0.000000 20.442200 4.834800
									CHANNELS 3 Xrotation Yrotation Zrotation
									JOINT HeadTop_End
									{
										OFFSET 0.000000 34.668396 4.968400
										CHANNELS 3 Xrotation Yrotation Zrotation
										End Site
										{
											OFFSET 0 0 0
										}
									}
								}
							}
						}
						JOINT LeftShoulder_virtual
						{
							OFFSET 0.000000 0.000000 0.000000
							CHANNELS 3 Xrotation Yrotation Zrotation
							JOINT LeftShoulder
							{
								OFFSET 3.288150 8.794197 -1.372250
								CHANNELS 3 Xrotation Yrotation Zrotation
								JOINT LeftShoulder_split
								{
									OFFSET 3.288150 8.794197 -1.372250
									CHANNELS 3 Xrotation Yrotation Zrotation
									JOINT LeftArm
									{
										OFFSET 11.953299 -2.279007 -0.146200
										CHANNELS 3 Xrotation Yrotation Zrotation
										JOINT LeftForeArm
										{
											OFFSET 18.448900 0.000000 0.000000
											CHANNELS 3 Xrotation Yrotation Zrotation
											JOINT LeftHand
											{
												OFFSET 29.527798 0.000000 0.000000
												CHANNELS 3 Xrotation Yrotation Zrotation
												End Site
												{
													OFFSET 0 0 0
												}
											}
										}
									}
								}
							}
						}
						JOINT RightShoulder_virtual
						{
							OFFSET 0.000000 0.000000 0.000000
							CHANNELS 3 Xrotation Yrotation Zrotation
							JOINT RightShoulder
							{
								OFFSET -3.249400 8.794197 -1.372250
								CHANNELS 3 Xrotation Yrotation Zrotation
								JOINT RightShoulder_split
								{
									OFFSET -3.249400 8.794197 -1.372250
									CHANNELS 3 Xrotation Yrotation Zrotation
									JOINT RightArm
									{
										OFFSET -11.953299 -2.279007 -0.146200
										CHANNELS 3 Xrotation Yrotation Zrotation
										JOINT RightForeArm
										{
											OFFSET -18.448900 0.000000 0.000000
											CHANNELS 3 Xrotation Yrotation Zrotation
											JOINT RightHand
											{
												OFFSET -29.527802 0.000000 0.000000
												CHANNELS 3 Xrotation Yrotation Zrotation
												End Site
												{
													OFFSET 0 0 0
												}
											}
										}
									}
								}
							}
						}
					}
				}
			}
		}
	}
}
MOTION
Frames: 8
Frame Time: 0.03333333
2.886426 106.134598 -13.396420 0.000000 0.000000 0.000000 -7.221626 3.412341 9.809355 7.599163 26.358357 -8.076257 -2.129041 4.860170 2.921231 -1.248800 1.183162 0.759347 5.874027 -2.449652 -4.517839 0.000000 0.000000 0.000000 -6.900495 3.163538 9.463497 -8.506123 -5.828742 -12.756532 14.544459 8.239612 -2.802881 -1.620236 -15.948990 28.298824 4.132243 8.483091 -36.292309 0.000000 0.000000 0.000000 -10.648098 5.214451 9.410478 1.043524 -2.748570 -0.716831 7.192059 5.007140 -0.754918 0.088979 0.001726 0.055955 0.000000 0.000000 0.000000 8.502908 6.618799 -0.429101 -1.835145 -10.085552 0.309782 -68.135495 -64.404504 -59.107979 0.000000 0.000000 0.000000 5.001506 5.139295 -1.583371 0.556803 -33.251502 -3.905772 7.016046 4.112649 -6.353360 13.074921 15.456670 -54.816745 -2.895858 -41.256829 -10.873169 0.000000 0.000000 0.000000 5.042986 5.658943 1.431414 -3.279027 1.973194 10.239827 -2.749539 1.548273 0.570387 16.804108 11.221294 46.288110 -1.940104 20.082727 20.843103 0.000000 0.000000 0.000000 
2.510973 106.595024 -12.464672 0.000000 0.000000 0.000000 -7.235060 4.333112 9.765341 6.545568 25.533276 -7.447882 -2.249062 5.207764 2.841284 0.930259 1.446683 1.068370 5.331960 -2.315247 -4.958815 0.000000 0.000000 0.000000 -7.097656 3.910845 9.481930 -7.330697 -6.658180 -12.960952 12.450730 8.117358 -2.683160 -0.211956 -14.666971 30.294071 -0.297521 9.524450 -36.103615 0.000000 0.000000 0.000000 -10.766693 5.468479 9.100571 1.518874 -2.760557 -0.601208 7.803321 4.792259 -0.831576 0.212125 -0.091701 0.152133 0.000000 0.000000 0.000000 8.940340 6.533709 -0.433436 -2.929790 -9.930606 -0.033600 -66.445795 -64.082536 -56.580225 0.000000 0.000000 0.000000 5.573388 4.932866 -1.671559 0.722453 -34.071845 -3.642015 8.498126 -0.039669 -5.881808 17.934376 13.948225 -56.970693 -0.834362 -40.717428 -9.317889 0.000000 0.000000 0.000000 5.441569 5.560200 1.329150 -3.389365 2.885527 9.451605 -1.217335 1.899249 1.353438 16.842234 13.196008 46.054261 -2.684865 23.614669 20.982370 0.000000 0.000000 0.000000 
2.119065 107.464699 -11.734634 0.000000 0.000000 0.000000 -7.203644 5.070358 9.431576 5.364969 24.649738 -6.562282 -2.473221 5.913352 3.106062 3.932528 1.966864 1.461116 2.830875 -2.081828 -5.674120 0.000000 0.000000 0.000000 -7.041511 4.839205 9.204657 -5.155435 -7.324587 -12.404062 8.743914 7.090651 -2.644998 0.054528 -14.242187 29.301706 -0.726441 9.151649 -33.647165 0.000000 0.000000 0.000000 -10.513954 6.070840 8.531851 1.948718 -2.799733 -0.179326 8.822311 4.083585 -1.126859 0.276787 -0.206353 0.145585 0.000000 0.000000 0.000000 9.871588 6.031011 -0.752460 -3.966619 -8.845226 -0.522682 -61.704189 -63.885027 -50.738368 0.000000 0.000000 0.000000 6.956764 4.388828 -1.970952 1.165643 -33.715351 -2.780894 8.844566 -2.524135 -4.394247 24.307918 11.061639 -57.838991 0.468540 -44.697393 -6.176148 0.000000 0.000000 0.000000 6.760353 5.021107 0.786966 -3.127709 4.811487 8.062286 0.398508 1.076702 1.685778 19.695644 16.257310 45.623980 -2.532931 27.974768 18.847439 0.000000 0.000000 0.000000 
1.790324 108.332382 -11.182472 0.000000 0.000000 0.000000 -7.186682 5.331562 8.837626 3.982662 24.146163 -5.525043 -2.347515 6.620804 3.647770 7.290338 2.560234 1.437492 -0.781833 -1.714209 -6.494145 0.000000 0.000000 0.000000 -6.830665 5.269476 8.657000 -3.662370 -7.597102 -11.453998 5.799688 5.525202 -2.714534 1.077715 -14.154366 26.676164 0.605084 8.141743 -29.564088 0.000000 0.000000 0.000000 -10.322209 7.003306 7.909604 2.308370 -2.921571 0.394104 10.083544 2.939503 -1.465441 0.223104 -0.285506 0.167644 0.000000 0.000000 0.000000 11.041855 5.082890 -1.229822 -4.540669 -6.878468 -1.279433 -53.650730 -63.351992 -41.710077 0.000000 0.000000 0.000000 8.761380 3.466117 -2.316485 1.896332 -32.171134 -1.266600 8.292839 -3.371163 -3.796527 30.706925 8.180645 -57.145485 1.996807 -52.779481 -0.683856 0.000000 0.000000 0.000000 8.662788 4.015677 0.035631 -2.565969 7.618650 6.456047 1.808929 -0.009225 1.415572 23.546942 19.120508 45.536461 -1.105826 32.991310 14.284728 0.000000 0.000000 0.000000 
1.441328 109.046501 -10.705341 0.000000 0.000000 0.000000 -7.174047 5.175505 8.147812 2.191003 23.969169 -4.424575 -1.597332 6.704014 4.290889 10.932211 2.765909 0.315890 -4.374760 -1.279781 -6.990393 0.000000 0.000000 0.000000 -6.485911 4.998923 7.911127 -4.424940 -7.031034 -10.702595 5.519035 4.563031 -2.791062 4.285650 -13.241014 25.204894 -1.529176 7.873768 -24.694937 0.000000 0.000000 0.000000 -10.207280 8.386541 7.383604 2.636115 -3.242977 0.940815 11.395566 1.504129 -1.745725 0.002121 -0.250564 0.131715 0.000000 0.000000 0.000000 12.224396 3.767226 -1.690043 -4.292305 -4.170343 -2.462611 -43.318890 -62.090784 -30.761068 0.000000 0.000000 0.000000 10.608689 2.231775 -2.593202 2.712956 -29.983035 0.394985 7.244024 -4.023002 -4.235911 36.692739 6.304891 -55.324136 6.678737 -63.012416 9.274095 0.000000 0.000000 0.000000 10.662216 2.632995 -0.664641 -1.729533 11.221771 5.150431 2.467903 -0.634013 0.809891 26.344011 21.575770 45.977944 1.929688 38.983479 7.258971 0.000000 0.000000 0.000000 
1.063777 109.683792 -10.558617 0.000000 0.000000 0.000000 -7.180443 4.779132 7.421310 0.062348 23.901084 -3.526730 -0.291547 6.175492 4.866523 14.298351 2.382375 -1.547211 -7.211457 -0.932514 -6.864531 0.000000 0.000000 0.000000 -6.075245 4.621288 7.135569 -7.654446 -5.190927 -10.179661 8.645917 4.818688 -2.993002 8.569711 -11.198769 25.029201 -7.876633 8.046758 -19.638659 0.000000 0.000000 0.000000 -10.012282 9.920018 6.880152 2.985373 -3.829500 1.313991 12.555491 -0.050880 -1.909293 -0.227249 -0.204722 0.027059 0.000000 0.000000 0.000000 13.153844 2.319410 -1.971284 -3.142724 -1.114096 -4.133306 -32.088041 -60.186520 -19.568413 0.000000 0.000000 0.000000 12.239836 0.848277 -2.683242 3.444234 -27.780056 1.698086 5.847314 -4.988164 -6.126321 41.860693 5.633751 -52.712603 20.434306 -71.914099 28.628318 0.000000 0.000000 0.000000 12.334777 1.109247 -1.118098 -0.739049 15.337694 4.567634 2.720045 -0.947903 0.491577 26.077900 22.924736 47.395325 7.267016 46.078252 -2.540011 0.000000 0.000000 0.000000 
0.657030 110.284309 -10.953678 0.000000 0.000000 0.000000 -7.151649 4.402955 6.762201 -2.267027 23.708946 -2.778292 1.009965 5.049938 5.305505 16.789085 1.483922 -3.615800 -9.403808 -0.817941 -5.499261 0.000000 0.000000 0.000000 -5.533506 4.521587 6.385777 -12.434404 -2.230410 -9.502796 14.856519 5.719540 -3.393209 11.212095 -9.093864 23.851164 -12.988785 7.485539 -14.753335 0.000000 0.000000 0.000000 -9.385053 11.451756 6.198975 3.407393 -4.625285 1.431053 13.513709 -1.565303 -1.961053 -0.261290 -0.099835 -0.007590 0.000000 0.000000 0.000000 13.752568 0.962112 -1.988513 -1.042269 1.842132 -5.995035 -21.226975 -57.734366 -9.373690 0.000000 0.000000 0.000000 13.428204 -0.519511 -2.596724 3.897203 -26.126461 2.203109 5.306251 -6.277051 -8.531389 44.697984 5.264731 -49.171088 47.140593 -76.032969 60.424764 0.000000 0.000000 0.000000 13.456909 -0.355062 -1.285139 0.117949 19.528315 4.799807 3.824544 -0.709565 0.715147 22.334737 22.408466 49.545048 16.400075 53.888786 -15.998251 0.000000 0.000000 0.000000 
0.138561 110.822845 -11.598171 0.000000 0.000000 0.000000 -6.959626 4.332081 6.228166 -4.308265 23.095562 -2.312383 1.680950 3.925928 5.526076 17.796871 0.542068 -5.004302 -9.601604 -0.929067 -3.819437 0.000000 0.000000 0.000000 -4.931340 5.216391 5.789987 -17.997091 1.094810 -8.382035 22.819201 6.343020 -3.931125 10.929098 -8.001965 20.333366 -13.457178 6.320391 -10.331334 0.000000 0.000000 0.000000 -7.968345 12.965685 5.259941 3.819878 -5.462360 1.339684 14.122917 -2.847033 -1.983237 -0.102138 0.014737 -0.038348 0.000000 0.000000 0.000000 14.038450 -0.050734 -1.844298 1.781885 4.314794 -7.681404 -11.391654 -55.624214 -0.769585 0.000000 0.000000 0.000000 14.242424 -1.606077 -2.406765 3.941186 -25.336097 1.617481 5.323776 -6.428688 -10.138515 44.143960 5.008593 -43.899729 67.780878 -75.200888 85.172527 0.000000 0.000000 0.000000 13.897033 -1.496907 -1.301488 0.703859 23.274092 5.677741 6.105232 -0.610700 0.729221 16.544557 20.234765 50.919709 31.464329 60.968065 -34.793134 0.000000 0.000000 0.000000 
